<svg width="17" height="23" viewBox="0 0 17 23" fill="none" xmlns="http://www.w3.org/2000/svg">
<path d="M8.66 22.21C6.2 22.21 4.18 21.63 2.6 20.47C1.02 19.29 0.17 17.61 0.05 15.43H6.32C6.38 16.17 6.6 16.71 6.98 17.05C7.36 17.39 7.85 17.56 8.45 17.56C8.99 17.56 9.43 17.43 9.77 17.17C10.13 16.89 10.31 16.51 10.31 16.03C10.31 15.41 10.02 14.93 9.44 14.59C8.86 14.25 7.92 13.87 6.62 13.45C5.24 12.99 4.12 12.55 3.26 12.13C2.42 11.69 1.68 11.06 1.04 10.24C0.42 9.4 0.11 8.31 0.11 6.97C0.11 5.61 0.45 4.45 1.13 3.49C1.81 2.51 2.75 1.77 3.95 1.27C5.15 0.769999 6.51 0.519999 8.03 0.519999C10.49 0.519999 12.45 1.1 13.91 2.26C15.39 3.4 16.18 5.01 16.28 7.09H9.89C9.87 6.45 9.67 5.97 9.29 5.65C8.93 5.33 8.46 5.17 7.88 5.17C7.44 5.17 7.08 5.3 6.8 5.56C6.52 5.82 6.38 6.19 6.38 6.67C6.38 7.07 6.53 7.42 6.83 7.72C7.15 8 7.54 8.25 8 8.47C8.46 8.67 9.14 8.93 10.04 9.25C11.38 9.71 12.48 10.17 13.34 10.63C14.22 11.07 14.97 11.7 15.59 12.52C16.23 13.32 16.55 14.34 16.55 15.58C16.55 16.84 16.23 17.97 15.59 18.97C14.97 19.97 14.06 20.76 12.86 21.34C11.68 21.92 10.28 22.21 8.66 22.21Z" fill="white"/>
</svg>
